<mxfile host="app.diagrams.net" modified="2023-11-09T02:53:06.153Z" agent="Mozilla/5.0 (Macintosh; Intel Mac OS X 10_15_7) AppleWebKit/537.36 (KHTML, like Gecko) Chrome/117.0.0.0 Safari/537.36" etag="e40VjKA46sxIHcYWu1dH" version="22.0.8" type="github">
  <diagram name="第 1 页" id="tmyF7SlPsl8rCP0N53rC">
    <mxGraphModel dx="1434" dy="1873" grid="1" gridSize="10" guides="1" tooltips="1" connect="1" arrows="1" fold="1" page="1" pageScale="1" pageWidth="827" pageHeight="1169" math="0" shadow="0">
      <root>
        <mxCell id="0" />
        <mxCell id="1" parent="0" />
        <mxCell id="cnZNmyKkZTTiQ0E7COry-2" value="按日/按月/按季" style="rounded=0;whiteSpace=wrap;html=1;" vertex="1" parent="1">
          <mxGeometry x="94" y="-1150" width="110" height="20" as="geometry" />
        </mxCell>
        <mxCell id="cnZNmyKkZTTiQ0E7COry-6" value="最近一周/最近两周/本月/上个月/上上个月" style="rounded=0;whiteSpace=wrap;html=1;" vertex="1" parent="1">
          <mxGeometry x="281" y="-1151" width="261" height="20" as="geometry" />
        </mxCell>
        <mxCell id="cnZNmyKkZTTiQ0E7COry-7" value="日期模式：" style="text;html=1;strokeColor=none;fillColor=none;align=center;verticalAlign=middle;whiteSpace=wrap;rounded=0;" vertex="1" parent="1">
          <mxGeometry x="24" y="-1155" width="80" height="30" as="geometry" />
        </mxCell>
        <mxCell id="cnZNmyKkZTTiQ0E7COry-8" value="时间：" style="text;html=1;strokeColor=none;fillColor=none;align=center;verticalAlign=middle;whiteSpace=wrap;rounded=0;" vertex="1" parent="1">
          <mxGeometry x="234" y="-1154" width="46" height="25" as="geometry" />
        </mxCell>
        <mxCell id="cnZNmyKkZTTiQ0E7COry-9" value="查询" style="text;html=1;strokeColor=#82b366;fillColor=#d5e8d4;align=center;verticalAlign=middle;whiteSpace=wrap;rounded=0;" vertex="1" parent="1">
          <mxGeometry x="704" y="-1152.5" width="80" height="22.5" as="geometry" />
        </mxCell>
        <mxCell id="cnZNmyKkZTTiQ0E7COry-12" value="集群总数" style="rounded=0;whiteSpace=wrap;html=1;" vertex="1" parent="1">
          <mxGeometry x="34" y="-1022" width="330" height="190" as="geometry" />
        </mxCell>
        <mxCell id="cnZNmyKkZTTiQ0E7COry-13" value="实例总数" style="rounded=0;whiteSpace=wrap;html=1;" vertex="1" parent="1">
          <mxGeometry x="454" y="-1022" width="330" height="190" as="geometry" />
        </mxCell>
        <mxCell id="cnZNmyKkZTTiQ0E7COry-14" value="CPU总核数" style="rounded=0;whiteSpace=wrap;html=1;" vertex="1" parent="1">
          <mxGeometry x="34" y="-766" width="330" height="190" as="geometry" />
        </mxCell>
        <mxCell id="cnZNmyKkZTTiQ0E7COry-15" value="CPU平均利用率" style="rounded=0;whiteSpace=wrap;html=1;" vertex="1" parent="1">
          <mxGeometry x="454" y="-766" width="330" height="190" as="geometry" />
        </mxCell>
        <mxCell id="cnZNmyKkZTTiQ0E7COry-16" value="内存总大小(PB)" style="rounded=0;whiteSpace=wrap;html=1;" vertex="1" parent="1">
          <mxGeometry x="34" y="-514" width="330" height="190" as="geometry" />
        </mxCell>
        <mxCell id="cnZNmyKkZTTiQ0E7COry-17" value="内存平均利用率" style="rounded=0;whiteSpace=wrap;html=1;" vertex="1" parent="1">
          <mxGeometry x="454" y="-514" width="330" height="190" as="geometry" />
        </mxCell>
        <mxCell id="cnZNmyKkZTTiQ0E7COry-18" value="磁盘总大小(PB)" style="rounded=0;whiteSpace=wrap;html=1;" vertex="1" parent="1">
          <mxGeometry x="34" y="-260" width="330" height="190" as="geometry" />
        </mxCell>
        <mxCell id="cnZNmyKkZTTiQ0E7COry-19" value="磁盘平均利用率" style="rounded=0;whiteSpace=wrap;html=1;" vertex="1" parent="1">
          <mxGeometry x="454" y="-260" width="330" height="190" as="geometry" />
        </mxCell>
        <mxCell id="cnZNmyKkZTTiQ0E7COry-22" value="" style="shape=table;startSize=0;container=1;collapsible=0;childLayout=tableLayout;fontSize=16;" vertex="1" parent="1">
          <mxGeometry x="34" y="-1100" width="230" height="20" as="geometry" />
        </mxCell>
        <mxCell id="cnZNmyKkZTTiQ0E7COry-31" value="" style="shape=tableRow;horizontal=0;startSize=0;swimlaneHead=0;swimlaneBody=0;strokeColor=inherit;top=0;left=0;bottom=0;right=0;collapsible=0;dropTarget=0;fillColor=none;points=[[0,0.5],[1,0.5]];portConstraint=eastwest;fontSize=16;" vertex="1" parent="cnZNmyKkZTTiQ0E7COry-22">
          <mxGeometry width="230" height="20" as="geometry" />
        </mxCell>
        <mxCell id="cnZNmyKkZTTiQ0E7COry-32" value="&lt;font style=&quot;font-size: 12px;&quot;&gt;总览&lt;/font&gt;" style="shape=partialRectangle;html=1;whiteSpace=wrap;connectable=0;strokeColor=#6c8ebf;overflow=hidden;fillColor=#dae8fc;top=0;left=0;bottom=0;right=0;pointerEvents=1;fontSize=16;" vertex="1" parent="cnZNmyKkZTTiQ0E7COry-31">
          <mxGeometry width="77" height="20" as="geometry">
            <mxRectangle width="77" height="20" as="alternateBounds" />
          </mxGeometry>
        </mxCell>
        <mxCell id="cnZNmyKkZTTiQ0E7COry-33" value="&lt;font style=&quot;font-size: 12px;&quot;&gt;Redis&lt;/font&gt;" style="shape=partialRectangle;html=1;whiteSpace=wrap;connectable=0;strokeColor=inherit;overflow=hidden;fillColor=none;top=0;left=0;bottom=0;right=0;pointerEvents=1;fontSize=16;" vertex="1" parent="cnZNmyKkZTTiQ0E7COry-31">
          <mxGeometry x="77" width="76" height="20" as="geometry">
            <mxRectangle width="76" height="20" as="alternateBounds" />
          </mxGeometry>
        </mxCell>
        <mxCell id="cnZNmyKkZTTiQ0E7COry-34" value="&lt;font style=&quot;font-size: 12px;&quot;&gt;Kafka&lt;/font&gt;" style="shape=partialRectangle;html=1;whiteSpace=wrap;connectable=0;strokeColor=inherit;overflow=hidden;fillColor=none;top=0;left=0;bottom=0;right=0;pointerEvents=1;fontSize=16;" vertex="1" parent="cnZNmyKkZTTiQ0E7COry-31">
          <mxGeometry x="153" width="77" height="20" as="geometry">
            <mxRectangle width="77" height="20" as="alternateBounds" />
          </mxGeometry>
        </mxCell>
        <mxCell id="cnZNmyKkZTTiQ0E7COry-37" value="" style="shape=table;startSize=0;container=1;collapsible=0;childLayout=tableLayout;fontSize=16;" vertex="1" parent="1">
          <mxGeometry x="264" y="-1100" width="230" height="20" as="geometry" />
        </mxCell>
        <mxCell id="cnZNmyKkZTTiQ0E7COry-38" value="" style="shape=tableRow;horizontal=0;startSize=0;swimlaneHead=0;swimlaneBody=0;strokeColor=inherit;top=0;left=0;bottom=0;right=0;collapsible=0;dropTarget=0;fillColor=none;points=[[0,0.5],[1,0.5]];portConstraint=eastwest;fontSize=16;" vertex="1" parent="cnZNmyKkZTTiQ0E7COry-37">
          <mxGeometry width="230" height="20" as="geometry" />
        </mxCell>
        <mxCell id="cnZNmyKkZTTiQ0E7COry-39" value="&lt;font style=&quot;font-size: 12px;&quot;&gt;Elasticsearch&lt;/font&gt;" style="shape=partialRectangle;html=1;whiteSpace=wrap;connectable=0;overflow=hidden;top=0;left=0;bottom=0;right=0;pointerEvents=1;fontSize=16;" vertex="1" parent="cnZNmyKkZTTiQ0E7COry-38">
          <mxGeometry width="70" height="20" as="geometry">
            <mxRectangle width="70" height="20" as="alternateBounds" />
          </mxGeometry>
        </mxCell>
        <mxCell id="cnZNmyKkZTTiQ0E7COry-40" value="&lt;font style=&quot;font-size: 12px;&quot;&gt;RocketMQ&lt;/font&gt;" style="shape=partialRectangle;html=1;whiteSpace=wrap;connectable=0;strokeColor=inherit;overflow=hidden;fillColor=none;top=0;left=0;bottom=0;right=0;pointerEvents=1;fontSize=16;" vertex="1" parent="cnZNmyKkZTTiQ0E7COry-38">
          <mxGeometry x="70" width="83" height="20" as="geometry">
            <mxRectangle width="83" height="20" as="alternateBounds" />
          </mxGeometry>
        </mxCell>
        <mxCell id="cnZNmyKkZTTiQ0E7COry-41" value="&lt;span style=&quot;font-size: 12px;&quot;&gt;......&lt;/span&gt;" style="shape=partialRectangle;html=1;whiteSpace=wrap;connectable=0;strokeColor=inherit;overflow=hidden;fillColor=none;top=0;left=0;bottom=0;right=0;pointerEvents=1;fontSize=16;" vertex="1" parent="cnZNmyKkZTTiQ0E7COry-38">
          <mxGeometry x="153" width="77" height="20" as="geometry">
            <mxRectangle width="77" height="20" as="alternateBounds" />
          </mxGeometry>
        </mxCell>
      </root>
    </mxGraphModel>
  </diagram>
</mxfile>
